{"glyphs":{":":{"x_min":0,"x_max":332,"ha":332,"o":"m 93 0 l 122 145 l 267 145 l 238 0 z m 171 392 l 200 536 l 345 536 l 316 392 z"},"$":{"x_min":0,"x_max":660,"ha":660,"o":"m 277 -78 l 292 0 q 235 5 202 11 q 168 17 121 30 l 143 144 q 183 125 220 112 q 257 99 311 92 l 358 333 l 323 362 q 269 408 255 428 q 241 448 234 470 q 227 492 227 518 q 227 587 278 646 q 330 705 436 722 l 452 801 l 530 801 l 514 723 q 587 717 668 691 l 646 584 q 566 624 496 631 l 453 415 l 487 388 q 545 342 562 322 q 579 301 588 276 q 598 251 598 225 q 598 153 544 86 q 491 19 371 2 l 355 -78 z m 374 93 q 426 104 447 131 q 469 158 469 194 q 469 218 459 238 q 450 258 413 290 z m 398 459 l 433 632 q 385 622 367 596 q 349 570 349 541 q 349 523 355 509 q 361 494 391 466 q 394 463 398 459 z"},"?":{"x_min":0,"x_max":503,"ha":503,"o":"m 136 0 l 160 121 l 304 121 l 280 0 z m 176 205 q 190 267 211 298 q 232 329 276 370 l 325 416 q 388 475 406 507 q 423 539 423 570 q 423 604 395 626 q 366 647 314 647 q 245 647 148 605 l 169 713 q 264 741 369 741 q 468 741 522 701 q 576 661 576 597 q 576 551 550 507 q 523 463 452 401 l 415 369 q 379 337 357 304 q 335 271 323 213 l 321 205 z"},"<":{"x_min":0,"x_max":639,"ha":639,"o":"m 589 24 l 111 288 l 694 554 l 673 445 l 313 279 l 608 120 z"},"'":{"x_min":0,"x_max":247,"ha":247,"o":"m 193 470 l 163 771 l 319 771 l 283 470 z"},"=":{"x_min":0,"x_max":639,"ha":639,"o":"m 83 142 l 101 232 l 631 232 l 613 142 z m 122 340 l 140 431 l 670 431 l 652 340 z"},"a":{"x_min":0,"x_max":642,"ha":642,"o":"m 413 0 l 457 223 q 405 123 333 55 q 261 -12 195 -12 q 143 -12 113 30 q 82 73 82 120 q 82 218 143 329 q 204 439 284 494 q 363 548 442 548 q 458 548 478 545 q 497 542 520 536 l 664 536 l 557 0 z m 482 351 l 500 440 q 483 449 466 454 q 449 458 432 458 q 388 458 345 420 q 302 383 266 297 q 230 210 230 157 q 230 143 237 130 q 243 118 259 118 q 298 118 368 200 q 438 282 482 351 z"},"L":{"x_min":0,"x_max":587,"ha":587,"o":"m 87 0 l 231 723 l 382 723 l 258 100 l 592 100 l 572 0 z"},"3":{"x_min":0,"x_max":660,"ha":660,"o":"m 119 7 l 139 109 l 158 103 q 254 72 311 72 q 357 72 395 92 q 432 111 453 147 q 475 184 475 223 q 475 283 423 313 q 371 343 267 343 l 243 343 l 261 434 l 302 434 q 422 434 474 479 q 526 524 526 574 q 526 605 499 628 q 472 650 412 650 q 371 650 323 640 q 274 629 250 620 l 269 718 q 361 741 458 741 q 568 741 621 702 q 673 663 673 600 q 673 558 652 519 q 631 480 590 449 q 550 417 480 395 q 551 375 587 329 q 624 284 624 229 q 624 162 583 102 q 542 43 475 12 q 408 -18 312 -18 q 218 -18 119 7 z"},";":{"x_min":0,"x_max":332,"ha":332,"o":"m 146 0 l 93 0 l 122 145 l 267 145 l 244 28 q 210 -137 63 -150 l 75 -92 q 114 -85 128 -54 q 142 -22 146 0 z m 171 392 l 200 536 l 345 536 l 316 392 z"},"J":{"x_min":0,"x_max":458,"ha":458,"o":"m -13 -126 l 9 -19 q 75 -45 127 -45 q 170 -45 196 -18 q 222 9 238 92 l 364 723 l 515 723 l 396 129 q 369 -11 329 -58 q 289 -105 237 -125 q 186 -145 120 -145 q 60 -145 -13 -126 z"},"V":{"x_min":0,"x_max":731,"ha":731,"o":"m 291 0 l 162 723 l 318 723 l 417 170 l 725 723 l 845 723 l 444 0 z"},"\"":{"x_min":0,"x_max":452,"ha":452,"o":"m 192 482 l 168 771 l 313 771 l 283 482 z m 409 482 l 385 771 l 530 771 l 500 482 z"},"7":{"x_min":0,"x_max":660,"ha":660,"o":"m 184 0 q 195 72 232 144 q 268 215 325 292 q 381 368 474 471 l 596 605 l 229 605 l 252 723 l 743 723 l 721 608 q 689 576 674 559 q 533 408 433 250 q 392 183 368 125 q 359 105 352 79 q 344 54 336 0 z"},"S":{"x_min":0,"x_max":603,"ha":603,"o":"m 74 8 l 98 125 q 207 82 283 82 q 353 82 388 112 q 423 142 423 188 q 423 227 396 256 q 370 285 338 308 l 297 338 q 238 382 208 424 q 179 465 179 517 q 179 577 213 629 q 248 682 308 711 q 367 741 455 741 q 551 741 656 708 l 635 600 q 531 642 454 642 q 398 642 365 616 q 333 591 333 552 q 333 522 352 499 q 371 476 413 444 l 457 411 q 535 353 562 308 q 588 263 588 214 q 588 155 551 99 q 513 43 444 13 q 375 -18 266 -18 q 169 -18 74 8 z"},"}":{"x_min":0,"x_max":355,"ha":355,"o":"m 375 265 l 351 265 q 335 265 315 259 q 295 252 282 230 q 269 207 267 173 q 266 140 266 132 l 269 87 q 269 79 269 71 q 269 3 249 -38 q 225 -86 169 -115 q 113 -145 30 -145 l 49 -48 l 60 -48 q 85 -48 106 -25 q 118 -12 122 1 q 125 10 125 26 q 126 42 126 46 l 127 88 q 127 106 133 142 q 138 178 151 206 q 164 232 186 256 q 198 270 213 282 q 228 295 263 313 q 250 322 242 328 q 220 346 207 374 q 194 401 194 433 q 194 475 217 539 l 232 580 q 247 619 247 632 q 247 646 234 660 q 221 675 204 675 l 193 675 l 212 771 q 299 771 344 739 q 389 708 389 651 q 389 606 358 540 l 338 495 q 332 481 323 453 q 313 425 313 409 q 313 361 370 361 l 394 361 z"},"Z":{"x_min":0,"x_max":639,"ha":639,"o":"m 45 0 l 66 103 l 515 624 l 194 624 l 213 723 l 726 723 l 706 624 l 256 103 l 614 103 l 594 0 z"},"x":{"x_min":0,"x_max":555,"ha":555,"o":"m 18 0 l 260 274 l 140 536 l 288 536 l 363 374 l 503 536 l 629 536 l 407 276 l 534 0 l 385 0 l 303 176 l 146 0 z"},")":{"x_min":0,"x_max":355,"ha":355,"o":"m 15 -150 l 34 -57 q 104 6 148 89 q 192 173 217 277 q 242 381 242 471 q 242 514 235 552 q 229 591 218 619 q 207 647 181 684 l 200 777 q 245 750 264 731 q 282 711 299 687 q 339 629 359 560 q 379 491 379 417 q 379 269 296 123 q 260 59 211 2 q 179 -36 140 -71 q 101 -107 15 -150 z"},"&":{"x_min":0,"x_max":759,"ha":759,"o":"m 543 0 l 516 42 q 423 -15 311 -15 q 219 -15 156 35 q 121 62 103 100 q 84 138 84 181 q 84 255 136 321 q 188 386 317 434 q 311 452 307 461 q 297 488 292 510 q 287 531 287 547 q 287 588 307 625 q 327 662 360 689 q 391 714 429 728 q 466 741 512 741 q 588 741 633 704 q 678 667 678 611 q 678 546 626 490 q 573 435 473 398 q 519 291 581 188 q 622 237 639 283 q 656 329 662 404 l 779 404 q 769 340 757 309 q 745 278 729 250 q 715 223 695 193 q 674 164 624 120 q 635 100 665 58 q 674 45 683 31 q 692 18 708 0 z m 473 111 q 396 239 347 358 q 291 337 257 298 q 223 258 223 209 q 223 182 234 154 q 246 127 265 109 q 283 93 308 84 q 333 75 361 75 q 418 75 473 111 z m 443 472 q 559 527 559 601 q 559 621 546 636 q 532 651 504 651 q 468 651 447 623 q 425 595 425 555 q 425 541 430 520 q 434 499 443 472 z"},"_":{"x_min":0,"x_max":500,"ha":500,"o":"m 26 -78 l 42 0 l 458 0 l 442 -78 z"},"v":{"x_min":0,"x_max":586,"ha":586,"o":"m 207 0 l 125 536 l 268 536 l 327 144 l 564 536 l 681 536 l 354 0 z"},"O":{"x_min":0,"x_max":819,"ha":819,"o":"m 386 -18 q 252 -18 177 56 q 102 131 102 256 q 102 377 165 490 q 227 604 331 672 q 435 741 574 741 q 712 741 787 666 q 861 591 861 467 q 861 346 799 234 q 737 121 633 52 q 529 -18 386 -18 z m 420 81 q 491 81 554 127 q 617 174 658 267 q 700 359 700 455 q 700 548 657 595 q 614 642 544 642 q 476 642 411 594 q 347 547 306 454 q 266 362 266 268 q 266 172 310 126 q 355 81 420 81 z"},"(":{"x_min":0,"x_max":355,"ha":355,"o":"m 465 777 l 446 684 q 423 663 413 652 q 333 571 286 428 q 238 285 238 155 q 238 89 255 29 q 261 10 269 -8 q 276 -26 299 -57 l 280 -150 q 228 -119 206 -94 q 185 -69 167 -40 q 134 16 117 79 q 101 143 101 211 q 101 377 207 542 q 260 624 328 686 q 354 709 380 729 q 407 748 465 777 z"},"C":{"x_min":0,"x_max":711,"ha":711,"o":"m 672 30 q 515 -18 389 -18 q 302 -18 234 16 q 167 50 134 113 q 102 176 102 253 q 102 376 165 491 q 229 606 333 674 q 438 741 583 741 q 686 741 799 713 l 776 596 q 661 642 570 642 q 487 642 421 595 q 356 549 312 457 q 268 365 268 274 q 268 219 290 176 q 312 133 356 112 q 399 90 452 90 q 537 90 694 141 z"},"W":{"x_min":0,"x_max":945,"ha":945,"o":"m 207 0 l 171 723 l 311 723 l 337 202 l 564 723 l 691 723 l 699 209 l 942 723 l 1056 723 l 715 0 l 569 0 l 561 477 l 353 0 z"},"A":{"x_min":0,"x_max":735,"ha":735,"o":"m 21 0 l 421 723 l 575 723 l 714 0 l 565 0 l 529 184 l 243 184 l 142 0 z m 297 283 l 511 283 l 454 565 z"},"f":{"x_min":0,"x_max":425,"ha":425,"o":"m 61 -193 l 188 446 l 113 446 l 131 536 l 206 536 l 210 556 q 225 617 264 670 q 303 723 358 753 q 412 783 478 783 q 527 783 601 764 l 582 668 q 525 693 474 693 q 382 693 357 567 l 351 536 l 492 536 l 474 446 l 333 446 l 206 -193 z"},"Q":{"x_min":0,"x_max":821,"ha":821,"o":"m 762 -161 q 678 -137 614 -107 q 550 -78 460 -15 q 425 -18 398 -18 q 294 -18 232 15 q 171 48 136 109 q 102 170 102 257 q 102 377 165 490 q 227 604 331 672 q 435 741 574 741 q 712 741 787 666 q 861 591 861 466 q 861 378 827 294 q 794 209 731 138 q 668 67 575 17 q 620 -6 661 -19 q 703 -32 752 -43 q 802 -53 869 -62 z m 420 81 q 490 81 553 127 q 617 174 658 267 q 700 359 700 455 q 700 548 657 595 q 614 642 544 642 q 476 642 411 594 q 347 547 306 454 q 266 362 266 268 q 266 172 311 126 q 355 81 420 81 z"},"w":{"x_min":0,"x_max":827,"ha":827,"o":"m 163 0 l 128 536 l 258 536 l 283 163 l 465 536 l 593 536 l 614 163 l 802 536 l 913 536 l 643 0 l 502 0 l 482 366 l 303 0 z"},"-":{"x_min":0,"x_max":301,"ha":301,"o":"m 94 262 l 112 353 l 329 353 l 311 262 z"},"E":{"x_min":0,"x_max":600,"ha":600,"o":"m 87 0 l 231 723 l 686 723 l 667 624 l 362 624 l 322 422 l 566 422 l 547 328 l 303 328 l 258 100 l 583 100 l 563 0 z"},"s":{"x_min":0,"x_max":506,"ha":506,"o":"m 65 23 l 85 127 q 188 78 258 78 q 289 78 310 95 q 331 112 331 138 q 331 153 324 167 q 317 180 283 214 l 247 250 q 190 305 176 334 q 162 363 162 392 q 162 449 215 499 q 268 548 376 548 q 458 548 529 525 l 509 426 q 436 458 379 458 q 340 458 322 442 q 303 425 303 401 q 303 385 312 371 q 321 357 352 328 l 394 290 q 434 252 453 221 q 473 189 473 151 q 473 80 415 34 q 356 -12 252 -12 q 164 -12 65 23 z"},">":{"x_min":0,"x_max":639,"ha":639,"o":"m 165 554 l 642 290 l 59 24 l 81 133 l 440 299 l 146 458 z"},"l":{"x_min":0,"x_max":316,"ha":316,"o":"m 87 0 l 241 771 l 385 771 l 232 0 z"},"8":{"x_min":0,"x_max":660,"ha":660,"o":"m 296 394 q 283 407 272 417 q 249 442 236 470 q 224 499 224 525 q 224 569 249 613 q 274 657 315 688 q 351 714 395 728 q 439 741 492 741 q 583 741 635 698 q 686 655 686 594 q 686 541 650 490 q 614 439 521 391 q 583 347 602 325 q 622 303 633 276 q 645 249 645 221 q 645 159 603 102 q 561 45 492 13 q 422 -18 342 -18 q 274 -18 219 3 q 163 23 136 63 q 110 103 110 148 q 110 208 146 266 q 182 324 296 394 z m 443 440 q 565 507 565 574 q 565 609 538 630 q 511 650 471 650 q 440 650 411 637 q 382 623 366 601 q 349 579 349 553 q 349 520 376 491 q 403 462 443 440 z m 370 340 q 306 303 277 258 q 247 213 247 172 q 247 129 280 101 q 313 72 370 72 q 426 72 467 106 q 509 140 509 189 q 509 229 480 259 q 452 289 395 325 z"},"\\":{"x_min":0,"x_max":545,"ha":545,"o":"m 400 -145 l 159 771 l 269 771 l 510 -145 z"},"e":{"x_min":0,"x_max":570,"ha":570,"o":"m 544 51 q 467 15 399 1 q 330 -12 283 -12 q 222 -12 174 12 q 125 36 104 79 q 83 122 83 168 q 83 263 133 354 q 184 446 262 497 q 341 548 429 548 q 494 548 530 517 q 566 485 566 434 q 566 375 527 322 q 487 269 409 232 q 331 196 227 190 q 229 127 260 106 q 291 84 329 84 q 367 84 432 104 q 497 123 566 163 z m 237 280 q 334 280 382 320 q 430 360 430 404 q 430 423 418 437 q 406 452 382 452 q 345 452 302 408 q 258 365 237 280 z"},"b":{"x_min":0,"x_max":645,"ha":645,"o":"m 84 0 l 238 771 l 382 771 l 292 313 q 343 413 415 481 q 487 548 553 548 q 605 548 636 506 q 667 464 667 416 q 667 319 605 208 q 544 97 465 42 q 385 -12 306 -12 q 290 -12 271 -9 q 251 -6 229 0 z m 266 185 l 248 96 q 266 87 283 83 q 300 78 316 78 q 360 78 404 116 q 447 155 483 241 q 519 328 519 382 q 519 397 512 410 q 506 422 490 422 q 452 422 381 339 q 311 255 266 185 z"},"%":{"x_min":0,"x_max":824,"ha":824,"o":"m 96 0 l 771 723 l 876 723 l 204 0 z m 267 361 q 208 361 168 394 q 127 427 127 495 q 127 545 148 593 q 168 641 202 671 q 229 695 265 709 q 301 723 339 723 q 399 723 439 690 q 480 657 480 588 q 480 539 460 492 q 441 446 405 413 q 376 386 339 374 q 302 361 267 361 z m 285 440 q 316 440 338 471 q 356 494 365 522 q 375 551 375 580 q 375 609 362 627 q 349 645 325 645 q 295 645 272 614 q 255 590 245 562 q 236 533 236 504 q 236 474 249 457 q 263 440 285 440 z m 633 0 q 575 0 534 33 q 493 65 493 133 q 493 184 514 232 q 534 279 568 310 q 595 334 631 348 q 667 361 705 361 q 765 361 805 329 q 846 296 846 227 q 846 177 826 131 q 807 84 771 51 q 743 24 705 12 q 667 0 633 0 z m 651 78 q 682 78 705 109 q 722 132 731 161 q 740 189 740 218 q 740 249 727 266 q 714 283 691 283 q 661 283 638 252 q 621 229 611 200 q 602 171 602 142 q 602 113 615 95 q 628 78 651 78 z"},"m":{"x_min":0,"x_max":966,"ha":966,"o":"m 87 0 l 194 536 l 333 536 l 288 313 q 342 417 410 482 q 479 548 547 548 q 583 548 609 525 q 635 502 635 452 q 635 421 628 388 l 614 313 q 743 548 876 548 q 918 548 942 518 q 966 488 966 443 q 966 421 960 390 l 883 0 l 744 0 l 816 361 q 818 373 818 387 q 818 403 811 409 q 804 416 797 416 q 748 416 588 187 l 551 0 l 416 0 l 488 361 q 490 373 490 387 q 490 403 483 409 q 476 416 469 416 q 420 416 263 187 l 226 0 z"},"#":{"x_min":0,"x_max":660,"ha":660,"o":"m 101 0 l 194 208 l 61 208 l 89 280 l 227 280 l 300 443 l 154 443 l 183 515 l 332 515 l 425 723 l 500 723 l 407 515 l 535 515 l 628 723 l 703 723 l 609 515 l 743 515 l 714 443 l 577 443 l 504 280 l 649 280 l 621 208 l 471 208 l 378 0 l 304 0 l 397 208 l 269 208 l 175 0 z m 301 280 l 429 280 l 502 443 l 374 443 z"},",":{"x_min":0,"x_max":332,"ha":332,"o":"m 146 0 l 87 0 l 119 157 l 275 157 l 250 35 q 233 -53 189 -99 q 145 -145 57 -150 l 68 -95 q 96 -95 115 -79 q 134 -62 143 -15 z"},"n":{"x_min":0,"x_max":650,"ha":650,"o":"m 87 0 l 194 536 l 338 536 l 294 313 q 352 421 420 485 q 488 548 557 548 q 597 548 624 521 q 651 495 651 441 q 651 412 645 377 l 569 0 l 425 0 l 498 368 q 500 378 500 388 q 500 416 479 416 q 445 416 381 335 q 316 255 268 178 l 232 0 z"},"h":{"x_min":0,"x_max":650,"ha":650,"o":"m 87 0 l 241 771 l 385 771 l 294 313 q 352 421 420 485 q 488 548 557 548 q 597 548 624 521 q 651 495 651 441 q 651 412 645 377 l 569 0 l 425 0 l 498 368 q 500 378 500 388 q 500 416 479 416 q 445 416 381 335 q 316 255 268 178 l 232 0 z"},"z":{"x_min":0,"x_max":584,"ha":584,"o":"m 51 0 l 69 90 l 431 446 l 149 446 l 167 536 l 619 536 l 601 446 l 238 90 l 557 90 l 539 0 z"},"B":{"x_min":0,"x_max":632,"ha":632,"o":"m 87 0 l 231 723 l 429 723 q 531 723 575 707 q 619 690 642 659 q 665 627 665 586 q 665 544 644 505 q 624 465 585 433 q 546 400 475 375 q 560 347 594 302 q 628 258 628 203 q 628 150 597 102 q 566 54 514 27 q 461 0 362 0 z m 252 100 l 293 100 q 406 100 439 135 q 473 169 473 216 q 473 273 424 300 q 375 327 316 327 l 297 327 z m 316 422 l 354 422 q 433 422 472 468 q 511 513 511 558 q 511 578 502 592 q 493 605 472 614 q 451 622 377 622 l 355 622 z"},"K":{"x_min":0,"x_max":699,"ha":699,"o":"m 87 0 l 231 723 l 382 723 l 313 378 l 613 723 l 745 723 l 455 391 l 693 0 l 519 0 l 309 355 l 238 0 z"},"R":{"x_min":0,"x_max":675,"ha":675,"o":"m 87 0 l 231 723 l 505 723 q 578 723 615 709 q 653 695 675 661 q 697 627 697 583 q 697 512 648 446 q 599 379 506 336 l 660 0 l 497 0 l 375 301 l 295 301 l 235 0 z m 314 397 l 359 397 q 444 397 492 450 q 541 503 541 559 q 541 581 530 595 q 520 608 496 616 q 472 624 402 624 l 359 624 z"},"T":{"x_min":0,"x_max":693,"ha":693,"o":"m 271 0 l 396 624 l 133 624 l 153 723 l 828 723 l 808 624 l 546 624 l 422 0 z"},"P":{"x_min":0,"x_max":614,"ha":614,"o":"m 87 0 l 231 723 l 483 723 q 605 723 647 681 q 689 639 689 579 q 689 509 646 434 q 602 358 526 321 q 449 283 346 283 l 292 283 l 235 0 z m 311 379 l 347 379 q 403 379 443 400 q 482 421 508 466 q 534 511 534 556 q 534 589 509 606 q 483 624 398 624 l 359 624 z"},"|":{"x_min":0,"x_max":247,"ha":247,"o":"m 50 -145 l 232 771 l 322 771 l 140 -145 z"},"t":{"x_min":0,"x_max":410,"ha":410,"o":"m 362 5 q 312 -9 265 -9 q 187 -9 154 25 q 122 60 122 102 q 122 127 131 175 l 185 446 l 113 446 l 131 536 l 203 536 l 221 626 l 370 646 l 348 536 l 459 536 l 441 446 l 330 446 l 278 184 q 271 154 271 137 q 271 109 288 98 q 305 87 323 87 q 352 87 381 100 z"},"M":{"x_min":0,"x_max":892,"ha":892,"o":"m 87 0 l 231 723 l 431 723 l 494 241 l 766 723 l 948 723 l 804 0 l 663 0 l 770 539 l 499 57 l 383 57 l 318 555 l 208 0 z"},"g":{"x_min":0,"x_max":645,"ha":645,"o":"m 68 -177 l 62 -56 q 115 -78 149 -88 q 183 -99 214 -104 q 246 -108 276 -108 q 350 -108 379 -74 q 408 -39 417 8 l 460 223 q 451 208 446 201 q 391 113 375 96 q 358 78 333 58 q 303 33 268 16 q 233 0 199 0 q 147 0 116 39 q 85 78 85 135 q 85 225 141 330 q 197 435 277 492 q 358 548 443 548 q 462 548 484 545 q 507 542 533 536 l 667 536 l 581 100 q 552 -43 514 -96 q 477 -148 405 -177 q 333 -205 252 -205 q 159 -205 68 -177 z m 486 352 l 503 442 q 486 450 468 454 q 450 458 431 458 q 385 458 340 420 q 294 381 263 304 q 232 226 232 167 q 232 137 242 130 q 253 124 263 124 q 298 124 361 191 q 424 259 486 352 z"},"j":{"x_min":0,"x_max":365,"ha":365,"o":"m -106 -185 l -86 -87 q -22 -114 26 -114 q 69 -114 97 -83 q 125 -52 138 10 l 242 536 l 387 536 l 295 77 q 273 -33 234 -89 q 194 -145 137 -175 q 81 -205 8 -205 q -13 -205 -34 -202 q -54 -199 -106 -185 z m 260 626 l 286 753 l 430 753 l 405 626 z"},"i":{"x_min":0,"x_max":316,"ha":316,"o":"m 87 0 l 194 536 l 339 536 l 232 0 z m 212 626 l 237 753 l 382 753 l 356 626 z"},"y":{"x_min":0,"x_max":592,"ha":592,"o":"m 68 -193 l 220 0 l 125 536 l 272 536 l 336 174 l 571 536 l 690 536 l 213 -193 z"},"@":{"x_min":0,"x_max":846,"ha":846,"o":"m 593 22 q 509 -18 424 -18 q 359 -18 299 3 q 238 24 196 64 q 154 104 130 164 q 105 224 105 282 q 105 368 145 457 q 184 546 248 608 q 310 670 394 706 q 477 741 562 741 q 698 741 791 653 q 883 564 883 436 q 883 372 859 312 q 835 253 794 213 q 759 180 716 162 q 672 145 624 145 q 544 145 544 198 q 544 219 553 247 l 572 310 l 562 310 q 528 245 473 195 q 417 145 364 145 q 325 145 301 176 q 277 207 277 258 q 277 318 305 383 q 332 447 378 498 q 412 534 452 553 q 492 572 533 572 q 555 572 585 569 q 611 566 624 566 l 688 566 l 633 293 q 628 269 628 249 q 628 214 665 214 q 708 214 752 259 q 785 293 802 336 q 819 379 819 430 q 819 533 749 603 q 712 639 663 658 q 615 678 562 678 q 489 678 419 648 q 350 619 297 568 q 237 511 203 432 q 168 353 168 283 q 168 240 187 194 q 205 147 236 115 q 272 78 321 62 q 369 45 423 45 q 451 45 484 49 q 517 54 573 80 z m 571 402 l 589 493 q 548 512 518 512 q 445 512 405 431 q 366 350 366 280 q 366 255 376 237 q 386 220 401 220 q 423 220 457 254 q 482 280 506 309 q 523 329 536 347 q 549 365 571 402 z"},".":{"x_min":0,"x_max":332,"ha":332,"o":"m 87 0 l 119 157 l 275 157 l 244 0 z"},"p":{"x_min":0,"x_max":645,"ha":645,"o":"m 46 -193 l 191 536 l 335 536 l 291 313 q 338 405 411 477 q 483 548 553 548 q 605 548 636 506 q 667 464 667 416 q 667 318 605 208 q 544 97 465 42 q 385 -12 306 -12 q 273 -12 229 0 l 190 -193 z m 266 185 l 248 96 q 282 78 316 78 q 360 78 404 116 q 447 154 483 241 q 519 328 519 382 q 519 397 512 410 q 505 422 490 422 q 452 422 382 339 q 312 257 266 185 z"},"X":{"x_min":0,"x_max":662,"ha":662,"o":"m 6 0 l 318 368 l 167 723 l 333 723 l 435 487 l 635 723 l 770 723 l 479 380 l 640 0 l 474 0 l 363 260 l 141 0 z"},"*":{"x_min":0,"x_max":466,"ha":466,"o":"m 381 577 l 521 646 l 533 546 l 387 528 q 391 540 391 547 q 391 563 381 577 z m 383 520 l 468 421 l 370 359 l 335 489 q 364 495 383 520 z m 326 489 l 239 359 l 167 421 l 291 520 q 299 495 326 489 z m 290 528 l 151 546 l 204 646 l 315 577 q 292 557 290 528 z m 324 723 l 430 723 l 375 582 q 363 588 351 588 q 337 588 324 582 z"},"Y":{"x_min":0,"x_max":646,"ha":646,"o":"m 240 0 l 304 323 l 150 723 l 306 723 l 414 441 l 632 723 l 763 723 l 455 327 l 391 0 z"},"c":{"x_min":0,"x_max":523,"ha":523,"o":"m 485 35 q 373 -12 272 -12 q 190 -12 136 36 q 83 83 83 168 q 83 262 133 352 q 183 442 267 495 q 352 548 439 548 q 498 548 570 524 l 550 422 q 476 458 430 458 q 380 458 337 425 q 294 392 265 325 q 237 258 237 193 q 237 141 263 117 q 290 93 330 93 q 350 93 378 100 q 407 106 440 118 q 473 129 508 149 z"},"!":{"x_min":0,"x_max":235,"ha":235,"o":"m 45 0 l 69 121 l 214 121 l 190 0 z m 110 205 l 161 578 l 189 723 l 334 723 l 305 578 l 207 205 z"},"/":{"x_min":0,"x_max":545,"ha":545,"o":"m -23 -145 l 583 771 l 692 771 l 87 -145 z"},"[":{"x_min":0,"x_max":355,"ha":355,"o":"m 56 -145 l 238 771 l 464 771 l 444 675 l 342 675 l 198 -48 l 301 -48 l 282 -145 z"},"6":{"x_min":0,"x_max":660,"ha":660,"o":"m 303 419 q 379 473 460 473 q 545 473 604 422 q 663 371 663 291 q 663 215 622 140 q 582 66 514 24 q 447 -18 365 -18 q 291 -18 234 15 q 177 47 149 110 q 122 173 122 247 q 122 374 178 494 q 235 615 323 678 q 410 741 533 741 q 626 741 711 713 l 690 605 q 649 624 621 634 q 592 643 570 647 q 547 650 523 650 q 442 650 387 587 q 333 524 303 419 z m 268 207 q 268 143 297 108 q 327 72 375 72 q 417 72 448 98 q 480 123 500 168 q 521 213 521 261 q 521 315 494 347 q 467 379 419 379 q 363 379 316 337 q 268 295 268 207 z"},"r":{"x_min":0,"x_max":512,"ha":512,"o":"m 87 0 l 194 536 l 338 536 l 294 313 q 352 423 421 486 q 491 548 549 548 q 568 548 589 542 l 547 405 q 524 416 506 416 q 452 416 388 342 q 325 268 268 178 l 232 0 z"},"2":{"x_min":0,"x_max":660,"ha":660,"o":"m 90 0 l 107 87 q 138 146 190 198 q 242 251 304 299 l 374 353 q 456 416 496 465 q 536 514 536 560 q 536 602 505 625 q 474 647 414 647 q 320 647 221 597 l 242 700 q 358 741 463 741 q 576 741 631 692 q 687 644 687 571 q 687 513 649 455 q 612 397 503 325 l 427 274 q 371 237 344 214 q 317 191 299 168 q 280 146 269 114 l 595 114 l 572 0 z"},"{":{"x_min":0,"x_max":355,"ha":355,"o":"m 105 361 l 129 361 q 178 361 198 396 q 211 419 213 449 q 214 479 214 495 l 211 540 q 211 547 211 556 q 211 623 231 664 q 255 713 311 742 q 366 771 450 771 l 431 675 l 420 675 q 395 675 374 651 q 361 639 358 625 q 355 616 354 600 q 354 584 354 580 l 353 539 q 353 521 347 485 q 342 449 329 421 q 316 395 294 370 q 282 356 267 344 q 252 332 217 313 q 230 305 238 298 q 260 281 273 253 q 286 225 286 193 q 286 151 263 88 l 248 46 q 233 8 233 -6 q 233 -20 246 -34 q 259 -48 276 -48 l 287 -48 l 268 -145 q 181 -145 136 -113 q 91 -81 91 -25 q 91 20 122 87 l 142 132 q 147 144 156 172 q 166 201 166 217 q 166 247 148 256 q 130 265 110 265 l 86 265 z"},"9":{"x_min":0,"x_max":660,"ha":660,"o":"m 508 303 q 432 253 352 253 q 265 253 207 304 q 148 355 148 435 q 148 509 189 583 q 229 658 297 699 q 365 741 446 741 q 520 741 577 708 q 634 675 662 613 q 689 550 689 476 q 689 349 633 229 q 576 108 489 45 q 401 -18 271 -18 q 184 -18 100 10 l 121 117 q 163 98 191 89 q 219 80 242 76 q 264 72 287 72 q 369 72 423 135 q 478 198 508 303 z m 542 516 q 542 580 513 615 q 484 650 436 650 q 395 650 363 626 q 331 601 311 556 q 291 511 291 464 q 291 411 317 379 q 344 346 393 346 q 448 346 495 387 q 542 427 542 516 z"}," ":{"x_min":0,"x_max":330,"ha":330,"o":""},"I":{"x_min":0,"x_max":325,"ha":325,"o":"m 87 0 l 231 723 l 382 723 l 238 0 z"},"H":{"x_min":0,"x_max":774,"ha":774,"o":"m 87 0 l 231 723 l 382 723 l 323 428 l 621 428 l 680 723 l 831 723 l 687 0 l 536 0 l 602 328 l 303 328 l 238 0 z"},"4":{"x_min":0,"x_max":660,"ha":660,"o":"m 364 0 l 401 187 l 76 187 l 96 285 l 501 723 l 635 723 l 549 292 l 640 292 l 618 187 l 528 186 l 491 0 z m 226 292 l 423 292 l 477 564 z"},"~":{"x_min":0,"x_max":639,"ha":639,"o":"m 95 205 q 112 295 161 340 q 209 384 265 384 q 292 384 313 376 q 334 367 375 344 l 428 313 l 470 288 q 487 280 502 280 q 523 280 544 302 q 564 323 573 371 l 658 371 q 638 276 592 233 q 545 189 488 189 q 462 189 442 197 q 421 205 373 232 l 319 263 l 278 287 q 264 294 250 294 q 232 294 211 275 q 190 256 179 205 z"},"D":{"x_min":0,"x_max":786,"ha":786,"o":"m 87 0 l 231 723 l 535 723 q 650 723 706 698 q 762 673 795 618 q 828 562 828 472 q 828 342 768 229 q 709 116 615 58 q 521 0 369 0 z m 258 100 l 344 100 q 447 100 513 145 q 579 189 621 277 q 664 364 664 458 q 664 546 608 585 q 553 624 408 624 l 362 624 z"},"^":{"x_min":0,"x_max":639,"ha":639,"o":"m 93 193 l 463 723 l 623 193 l 528 193 l 429 521 l 200 193 z"},"0":{"x_min":0,"x_max":660,"ha":660,"o":"m 331 -18 q 240 -18 175 48 q 109 114 109 238 q 109 371 164 494 q 218 618 299 679 q 380 741 472 741 q 569 741 633 674 q 697 606 697 484 q 697 354 643 231 q 590 108 510 45 q 429 -18 331 -18 z m 347 72 q 448 72 499 241 q 550 410 550 533 q 550 595 521 623 q 492 650 455 650 q 402 650 358 597 q 314 544 283 410 q 253 276 253 190 q 253 125 283 99 q 313 72 347 72 z"},"F":{"x_min":0,"x_max":582,"ha":582,"o":"m 87 0 l 231 723 l 686 723 l 667 624 l 362 624 l 319 407 l 563 407 l 544 313 l 300 313 l 238 0 z"},"`":{"x_min":0,"x_max":614,"ha":614,"o":"m 459 626 l 347 771 l 476 771 l 549 626 z"},"k":{"x_min":0,"x_max":622,"ha":622,"o":"m 87 0 l 241 771 l 385 771 l 287 277 l 541 536 l 666 536 l 438 298 l 609 0 l 448 0 l 287 277 l 232 0 z"},"u":{"x_min":0,"x_max":647,"ha":647,"o":"m 416 0 l 460 223 q 403 115 336 52 q 269 -12 201 -12 q 161 -12 133 15 q 106 42 106 95 q 106 124 113 159 l 188 536 l 333 536 l 259 168 q 257 158 257 150 q 257 124 277 124 q 312 124 375 202 q 438 281 487 358 l 522 536 l 667 536 l 560 0 z"},"]":{"x_min":0,"x_max":355,"ha":355,"o":"m 425 771 l 243 -145 l 17 -145 l 36 -48 l 138 -48 l 282 675 l 180 675 l 199 771 z"},"U":{"x_min":0,"x_max":732,"ha":732,"o":"m 223 723 l 376 723 l 286 267 q 278 231 278 200 q 278 146 314 115 q 349 84 404 84 q 462 84 505 122 q 547 160 568 266 l 659 723 l 795 723 l 710 300 q 686 174 645 112 q 604 50 534 16 q 465 -18 378 -18 q 271 -18 198 38 q 125 93 125 189 q 125 234 136 287 z"},"o":{"x_min":0,"x_max":614,"ha":614,"o":"m 285 -12 q 193 -12 138 37 q 83 87 83 167 q 83 261 134 355 q 185 450 262 499 q 339 548 434 548 q 530 548 584 499 q 638 449 638 369 q 638 275 588 181 q 537 87 461 37 q 385 -12 285 -12 z m 315 82 q 365 82 402 116 q 438 151 462 215 q 486 278 486 344 q 486 398 465 427 q 444 455 404 455 q 358 455 321 420 q 283 385 259 322 q 235 259 235 191 q 235 138 256 110 q 278 82 315 82 z"},"N":{"x_min":0,"x_max":762,"ha":762,"o":"m 87 0 l 231 723 l 366 723 l 601 218 l 701 723 l 818 723 l 675 0 l 544 0 l 308 505 l 208 0 z"},"+":{"x_min":0,"x_max":639,"ha":639,"o":"m 279 24 l 323 244 l 103 244 l 121 334 l 341 334 l 385 554 l 475 554 l 431 334 l 651 334 l 633 244 l 413 244 l 370 24 z"},"G":{"x_min":0,"x_max":732,"ha":732,"o":"m 670 21 q 508 -18 393 -18 q 254 -18 178 56 q 102 130 102 254 q 102 378 164 492 q 227 606 331 674 q 436 741 581 741 q 672 741 795 713 l 772 597 q 718 617 685 625 q 653 634 624 638 q 595 642 567 642 q 479 642 414 594 q 349 546 306 454 q 263 362 263 269 q 263 181 312 131 q 361 81 451 81 q 492 81 537 96 l 583 325 l 730 325 z"},"q":{"x_min":0,"x_max":642,"ha":642,"o":"m 375 -193 l 457 223 q 405 123 333 55 q 261 -12 195 -12 q 143 -12 113 30 q 82 73 82 120 q 82 218 143 329 q 204 439 284 494 q 363 548 442 548 q 458 548 478 545 q 497 542 520 536 l 664 536 l 519 -193 z m 482 351 l 500 440 q 483 449 466 454 q 449 458 432 458 q 388 458 345 420 q 302 383 266 297 q 230 210 230 157 q 230 143 237 130 q 243 118 259 118 q 298 118 368 200 q 438 282 482 351 z"},"d":{"x_min":0,"x_max":645,"ha":645,"o":"m 413 0 l 457 223 q 405 123 333 55 q 261 -12 195 -12 q 143 -12 113 30 q 82 73 82 120 q 82 218 143 329 q 204 439 284 494 q 363 548 442 548 q 474 548 520 536 l 566 771 l 711 771 l 557 0 z m 482 351 l 500 440 q 466 458 432 458 q 388 458 345 420 q 302 383 266 297 q 230 210 230 157 q 230 143 237 130 q 243 118 259 118 q 298 118 368 200 q 438 282 482 351 z"},"1":{"x_min":0,"x_max":660,"ha":660,"o":"m 254 0 l 380 632 l 275 632 l 291 711 l 544 732 l 398 0 z"},"5":{"x_min":0,"x_max":660,"ha":660,"o":"m 130 1 l 150 105 q 178 94 222 83 q 266 72 305 72 q 393 72 434 123 q 476 173 476 231 q 476 291 427 328 q 379 365 281 365 q 248 365 213 359 l 286 723 l 710 723 l 688 608 l 353 608 l 322 450 q 408 450 480 425 q 553 400 592 351 q 632 301 632 239 q 632 170 591 108 q 549 45 479 14 q 408 -18 300 -18 q 220 -18 130 1 z"}}}
